<svg width="53" height="50" viewBox="0 0 53 50" fill="none" xmlns="http://www.w3.org/2000/svg">
<path fill-rule="evenodd" clip-rule="evenodd" d="M26.5267 4L30.5159 16.4016L31.8149 20.4582H36.0235L49.0476 20.4003L38.5001 28.0499L35.0824 30.5418L36.3987 34.5984L40.4457 47L26.5267 36.8005L12.6019 47L16.6547 34.5984L17.9652 30.5418L14.5475 28.0499L4 20.4003L17.0241 20.4582H21.2385L22.5317 16.4016L26.5267 4Z" fill="#FAEDED"/>
<path d="M27.0027 3.84689L26.527 2.36824L26.0508 3.84669L22.0558 16.2483L22.0553 16.2498L20.8731 19.9582H17.0253H17.0241L4.00222 19.9003L2.44943 19.8934L3.70645 20.805L14.2529 28.4539L14.2539 28.4546L17.3781 30.7325L16.1794 34.4431L16.1789 34.4447L12.1267 46.8447L11.6441 48.3214L12.8974 47.4034L26.5266 37.4204L40.1501 47.4033L41.4028 48.3212L40.921 46.8449L36.8743 34.4441L36.8741 34.4433L35.6699 30.7322L38.7937 28.4546L38.7947 28.4539L49.3412 20.805L50.5982 19.8934L49.0454 19.9003L36.0235 19.9582H36.0223H32.1798L30.9921 16.2491L30.9919 16.2485L27.0027 3.84689Z" stroke="#7F5056"/>
</svg>
