<?xml version="1.0" encoding="UTF-8"?>
<svg id="Calque_2" data-name="Calque 2" xmlns="http://www.w3.org/2000/svg" viewBox="0 0 458.74 172.19">
  <defs>
    <style>
      .cls-1 {
        fill: #fff;
        stroke-width: 0px;
      }
    </style>
  </defs>
  <g id="Calque_3" data-name="Calque 3">
    <g id="LOGO2">
      <g>
        <g>
          <g>
            <path class="cls-1" d="m245.76,157.39c-.58,0-1.11-.19-1.6-.56-.46-.32-.8-.83-1-1.47l-10.96-41.31c-.06-.19-.1-.41-.1-.62-.02-.14-.02-.3-.02-.48,0-.88.28-1.6.82-2.14.51-.53,1.15-.82,1.84-.82.54,0,1.06.19,1.55.56.49.41.83.97,1.05,1.71l8.43,31.72,8.43-31.7c.2-.75.53-1.32,1-1.71.48-.39,1-.58,1.55-.58.47,0,1.18.14,1.86.82l.16.16.64,1.81v.7c-.03.19-.07.4-.14.62l-10.97,41.24c-.2.67-.53,1.17-.99,1.51-.47.36-.99.55-1.54.55Z"/>
            <path class="cls-1" d="m256.74,110.98c.42,0,.8.18,1.15.53l.5,1.44v.41c-.02.14-.05.28-.1.44l-10.98,41.28c-.13.43-.34.75-.62.97-.3.23-.62.35-.94.35-.35,0-.68-.12-.98-.35-.3-.21-.52-.54-.65-.97l-10.95-41.28c-.05-.16-.07-.3-.07-.44-.02-.12-.02-.25-.02-.41,0-.61.18-1.08.53-1.44.34-.35.71-.53,1.13-.53.32,0,.63.12.94.35.3.25.54.65.7,1.2l9.39,35.33,9.39-35.33c.14-.55.37-.95.67-1.2.29-.23.59-.35.91-.35m0-2c-.78,0-1.53.28-2.17.8-.65.54-1.09,1.29-1.35,2.24l-7.46,28.06-7.46-28.06v-.03s-.01-.03-.01-.03c-.27-.93-.72-1.66-1.33-2.17l-.03-.03-.03-.02c-.65-.5-1.4-.77-2.16-.77-.97,0-1.86.4-2.57,1.14-.48.47-1.08,1.38-1.08,2.82,0,.2,0,.39.03.56.01.27.06.55.14.83l10.95,41.25v.03s.02.03.02.03c.25.84.73,1.53,1.38,2,.64.49,1.39.74,2.17.74s1.51-.26,2.16-.77c.62-.46,1.07-1.13,1.32-1.98v-.03s.02-.03.02-.03l10.97-41.24c.08-.25.13-.5.16-.75v-.12s.01-.12.01-.12v-.75l-.11-.32-.5-1.44-.15-.43-.32-.32c-.92-.92-1.9-1.11-2.57-1.11h0Z"/>
          </g>
          <g>
            <path class="cls-1" d="m264.47,157.57c-.51,0-1-.12-1.44-.34-.44-.22-.84-.54-1.16-.96-.28-.33-.51-.76-.68-1.25-.18-.45-.27-.96-.27-1.5s.09-1.08.28-1.58c.15-.46.38-.91.67-1.29.31-.4.69-.73,1.13-.97.47-.24.96-.36,1.47-.36s.99.11,1.45.34c.47.27.84.58,1.15.97.31.4.54.83.72,1.31l.03.09.22,1.4v.08c0,.52-.08,1.02-.25,1.5-.19.5-.43.92-.72,1.27-.33.4-.71.71-1.13.93-.48.23-.96.34-1.47.34Z"/>
            <path class="cls-1" d="m264.47,150.33c.35,0,.69.08,1.01.23.3.18.58.41.82.7.22.29.41.63.55,1.03l.19,1.23c0,.41-.06.8-.19,1.17-.14.37-.33.69-.55.97-.24.29-.51.52-.82.67-.32.16-.66.23-1.01.23s-.68-.08-.99-.23c-.32-.16-.59-.38-.82-.67-.22-.27-.4-.6-.53-.97-.14-.37-.22-.76-.22-1.17s.07-.84.22-1.23c.13-.39.3-.73.53-1.03.22-.29.5-.53.82-.7.3-.16.63-.23.99-.23m0-2c-.67,0-1.31.15-1.9.45h-.02s-.02.03-.02.03c-.57.31-1.05.73-1.44,1.24-.35.46-.63.99-.83,1.58-.22.6-.33,1.24-.33,1.89s.11,1.27.34,1.86c.2.57.48,1.08.84,1.52.41.53.92.94,1.51,1.23.55.28,1.19.44,1.86.44s1.29-.15,1.89-.44c.59-.3,1.07-.7,1.49-1.2.36-.44.65-.95.87-1.51v-.03s.03-.04.03-.04c.2-.58.3-1.19.3-1.82v-.16l-.02-.15-.19-1.23-.03-.2-.07-.19c-.21-.58-.49-1.1-.84-1.55l-.02-.03-.02-.03c-.39-.48-.85-.87-1.36-1.17l-.06-.04-.06-.03c-.59-.29-1.23-.44-1.89-.44h0Z"/>
          </g>
          <g>
            <path class="cls-1" d="m298.36,157.57c-.69,0-1.33-.29-1.85-.84-.52-.49-.81-1.29-.81-2.33v-41.28c0-.38.07-.76.22-1.11.14-.33.32-.63.54-.9.22-.27.5-.5.81-.68.37-.19.73-.28,1.09-.28h8.36c1.58,0,3.1.37,4.5,1.11,1.38.72,2.6,1.72,3.64,2.97,1.01,1.24,1.82,2.7,2.41,4.34l.03.09.84,5.12v.08c0,1.86-.29,3.64-.87,5.28-.59,1.67-1.4,3.14-2.41,4.37-1.05,1.26-2.27,2.26-3.65,2.98-1.4.75-2.92,1.14-4.5,1.14h-5.68v16.75c0,1.04-.28,1.84-.84,2.37-.66.66-1.37.8-1.84.8Zm8.36-25.99c.82,0,1.56-.19,2.29-.58.73-.39,1.38-.93,1.93-1.62.56-.68,1.01-1.48,1.35-2.39l.52-3.19c0-1.04-.18-2.04-.5-2.96-.34-.93-.8-1.78-1.37-2.49-.55-.67-1.2-1.22-1.94-1.62-.71-.37-1.46-.55-2.28-.55h-5.68v15.4h5.68Z"/>
            <path class="cls-1" d="m306.73,111.16c1.43,0,2.77.33,4.04,1,1.26.66,2.38,1.57,3.34,2.72.94,1.15,1.68,2.5,2.24,4.04l.81,4.95c0,1.76-.27,3.41-.81,4.95-.56,1.56-1.3,2.92-2.24,4.07-.96,1.15-2.07,2.06-3.34,2.72-1.27.68-2.61,1.03-4.04,1.03h-6.68v17.75c0,.76-.18,1.31-.53,1.64-.35.35-.74.53-1.15.53s-.79-.18-1.13-.53c-.35-.33-.53-.88-.53-1.64v-41.28c0-.25.05-.5.14-.73.1-.23.22-.45.38-.64.14-.18.32-.32.53-.44.19-.1.39-.15.6-.15h8.36m-6.68,21.42h6.68c.98,0,1.9-.23,2.76-.7.85-.45,1.59-1.07,2.23-1.88.64-.78,1.15-1.7,1.54-2.75l.55-3.37c0-1.19-.18-2.31-.55-3.37-.38-1.05-.9-1.98-1.54-2.78-.64-.78-1.39-1.41-2.23-1.88-.87-.45-1.79-.67-2.76-.67h-6.68v17.4m6.68-23.42h-8.36c-.52,0-1.03.12-1.51.36l-.04.02-.04.02c-.42.24-.79.54-1.09.91-.29.35-.52.74-.69,1.15-.2.48-.29.98-.29,1.5v41.28c0,1.31.38,2.34,1.12,3.06.71.73,1.59,1.11,2.54,1.11.66,0,1.63-.19,2.55-1.09.75-.72,1.13-1.76,1.13-3.08v-15.75h4.68c1.75,0,3.43-.43,4.99-1.27,1.47-.77,2.8-1.85,3.92-3.2,1.09-1.34,1.96-2.91,2.59-4.68.62-1.76.93-3.65.93-5.62v-.16l-.03-.16-.81-4.95-.03-.18-.06-.17c-.63-1.75-1.5-3.3-2.57-4.63-1.14-1.37-2.47-2.45-3.96-3.23-1.55-.81-3.22-1.23-4.97-1.23h0Zm-4.68,8.01h4.68c.65,0,1.24.14,1.82.44.62.35,1.16.8,1.63,1.38.49.61.9,1.35,1.2,2.2.27.77.42,1.63.43,2.53l-.49,3.01c-.3.77-.68,1.44-1.14,2-.49.61-1.01,1.05-1.62,1.38-.59.32-1.18.47-1.83.47h-4.68v-13.4h0Z"/>
          </g>
          <g>
            <path class="cls-1" d="m349.04,157.45c-.49,0-1.21-.15-1.87-.89-.51-.51-.79-1.29-.79-2.28v-.49c-.87.82-1.81,1.52-2.83,2.09-1.8,1.04-3.8,1.56-5.92,1.56-1.31,0-2.59-.22-3.79-.64-1.18-.4-2.32-.99-3.36-1.75-1.03-.72-1.99-1.62-2.83-2.67-.84-1-1.57-2.16-2.17-3.42-.59-1.23-1.05-2.57-1.37-3.99-.33-1.41-.5-2.9-.5-4.44,0-2.29.37-4.49,1.09-6.52.71-2.03,1.7-3.84,2.96-5.37,1.25-1.52,2.74-2.75,4.44-3.65,1.73-.9,3.59-1.35,5.54-1.35,1.3,0,2.58.2,3.8.61,1.22.42,2.36,1.01,3.41,1.74,1.03.73,1.98,1.62,2.84,2.64.84,1.04,1.57,2.19,2.17,3.42.59,1.26,1.06,2.61,1.4,4.02.32,1.43.48,2.92.48,4.45v13.74c0,.99-.28,1.77-.82,2.32-.66.7-1.38.85-1.86.85Zm-11.41-27.77c-1.16,0-2.26.28-3.28.82-1.06.56-1.99,1.33-2.77,2.29-.81.99-1.46,2.15-1.93,3.46-.47,1.33-.71,2.77-.71,4.29s.24,2.96.71,4.29c.47,1.33,1.12,2.5,1.92,3.48.78.97,1.71,1.74,2.77,2.3,1.02.55,2.12.82,3.28.82s2.28-.27,3.33-.82c1.05-.56,1.99-1.33,2.8-2.3.78-.95,1.42-2.09,1.89-3.39l.74-4.46c0-1.49-.25-2.91-.71-4.21-.47-1.31-1.12-2.47-1.92-3.45-.8-.96-1.75-1.74-2.8-2.3-1.04-.55-2.13-.82-3.32-.82Z"/>
            <path class="cls-1" d="m337.63,124.66c1.2,0,2.36.19,3.48.56,1.12.39,2.17.93,3.15,1.61.96.68,1.84,1.5,2.64,2.46.78.98,1.46,2.05,2.04,3.22.56,1.19,1,2.46,1.32,3.81.3,1.35.46,2.75.46,4.22v13.74c0,.72-.18,1.26-.53,1.61-.35.37-.74.56-1.15.56s-.79-.19-1.13-.56c-.35-.35-.53-.89-.53-1.61v-3.11c-1.22,1.62-2.66,2.9-4.32,3.84-1.67.96-3.48,1.44-5.43,1.44-1.2,0-2.35-.2-3.46-.59-1.11-.37-2.14-.91-3.1-1.61-.98-.68-1.86-1.51-2.64-2.49-.8-.96-1.48-2.03-2.04-3.22-.56-1.17-.99-2.43-1.3-3.78-.32-1.35-.48-2.75-.48-4.22,0-2.19.34-4.25,1.03-6.18.67-1.93,1.6-3.62,2.79-5.07,1.17-1.43,2.55-2.56,4.13-3.4,1.59-.82,3.28-1.23,5.07-1.23m0,27.77c1.35,0,2.61-.31,3.8-.94,1.17-.62,2.2-1.47,3.1-2.55.88-1.07,1.58-2.33,2.09-3.78l.77-4.63c0-1.64-.26-3.18-.77-4.63-.51-1.43-1.21-2.68-2.09-3.75-.9-1.07-1.93-1.92-3.1-2.55-1.19-.62-2.45-.94-3.8-.94s-2.58.31-3.75.94c-1.18.62-2.21,1.47-3.07,2.55-.88,1.07-1.58,2.32-2.09,3.75-.51,1.45-.77,2.99-.77,4.63s.26,3.18.77,4.63c.51,1.45,1.21,2.71,2.09,3.78.86,1.07,1.89,1.92,3.07,2.55,1.17.62,2.42.94,3.75.94m0-29.77c-2.11,0-4.12.49-5.99,1.45-1.83.97-3.43,2.28-4.76,3.91-1.33,1.62-2.38,3.53-3.13,5.68-.76,2.12-1.14,4.43-1.14,6.84,0,1.61.18,3.19.53,4.68.33,1.46.82,2.88,1.44,4.18.63,1.33,1.41,2.56,2.31,3.64.88,1.09,1.9,2.06,3.03,2.85,1.09.8,2.31,1.43,3.61,1.87,1.28.45,2.67.69,4.1.69,2.3,0,4.46-.57,6.43-1.7.53-.3,1.04-.63,1.53-.99.18.59.47,1.09.88,1.51.9.97,1.9,1.18,2.58,1.18s1.67-.2,2.59-1.16c.73-.74,1.09-1.75,1.09-3.01v-13.74c0-1.6-.17-3.17-.5-4.66-.36-1.5-.85-2.91-1.46-4.22-.65-1.33-1.42-2.54-2.29-3.62-.94-1.12-1.95-2.06-3.04-2.84-1.14-.8-2.36-1.42-3.65-1.87-1.35-.45-2.73-.67-4.14-.67h0Zm0,27.77c-1,0-1.92-.23-2.81-.7-.96-.51-1.76-1.17-2.46-2.04-.74-.91-1.33-1.97-1.76-3.19-.43-1.22-.65-2.55-.65-3.96s.22-2.74.65-3.96c.43-1.19,1.02-2.26,1.75-3.15.71-.88,1.51-1.55,2.46-2.05.89-.48,1.81-.71,2.81-.71s1.96.23,2.86.71c.93.5,1.77,1.19,2.5,2.06.72.88,1.31,1.94,1.74,3.15.42,1.17.63,2.45.65,3.79l-.71,4.28c-.43,1.15-1,2.17-1.69,3.02-.72.86-1.56,1.55-2.5,2.05-.89.47-1.83.7-2.85.7h0Z"/>
          </g>
          <g>
            <path class="cls-1" d="m363.28,157.57c-.69,0-1.33-.29-1.85-.84-.52-.49-.81-1.29-.81-2.33v-15.88c0-2.04.32-3.97.95-5.73.63-1.76,1.51-3.34,2.62-4.69,1.12-1.37,2.45-2.46,3.94-3.24,1.52-.79,3.17-1.2,4.91-1.2,1.15,0,1.79.54,2.13.99l.1.13.53,1.68v.15c0,.71-.2,1.37-.6,1.96-.33.5-.98,1.09-2.15,1.09-.95,0-1.81.22-2.65.67-.86.46-1.64,1.1-2.3,1.9-.66.78-1.18,1.72-1.55,2.77-.38,1.07-.57,2.25-.57,3.5v15.88c0,1.04-.28,1.84-.84,2.37-.66.66-1.37.8-1.84.8Z"/>
            <path class="cls-1" d="m373.03,124.66c.59,0,1.03.2,1.32.59l.43,1.38c0,.51-.14.98-.43,1.41-.29.43-.73.64-1.32.64-1.11,0-2.15.26-3.12.79-.98.53-1.84,1.24-2.59,2.14-.74.88-1.31,1.9-1.73,3.08-.42,1.19-.62,2.47-.62,3.84v15.88c0,.76-.18,1.31-.53,1.64-.35.35-.74.53-1.15.53s-.79-.18-1.13-.53c-.35-.33-.53-.88-.53-1.64v-15.88c0-1.93.3-3.73.89-5.39.59-1.66,1.41-3.12,2.45-4.39,1.04-1.27,2.25-2.27,3.63-2.99,1.38-.72,2.86-1.08,4.44-1.08m0-2c-1.91,0-3.71.44-5.37,1.31-1.61.84-3.04,2.02-4.25,3.49-1.18,1.44-2.12,3.12-2.79,4.99-.67,1.87-1.01,3.91-1.01,6.06v15.88c0,1.31.38,2.34,1.12,3.06.71.73,1.59,1.11,2.54,1.11.66,0,1.63-.19,2.55-1.09.75-.72,1.13-1.76,1.13-3.08v-15.88c0-1.14.17-2.21.51-3.18.33-.93.79-1.76,1.37-2.45.59-.71,1.25-1.25,2.01-1.66.69-.37,1.4-.55,2.17-.55,1.26,0,2.32-.54,2.98-1.53.51-.76.77-1.61.77-2.52v-.31l-.09-.29-.43-1.38-.1-.32-.2-.27c-.67-.9-1.71-1.4-2.93-1.4h0Z"/>
          </g>
          <g>
            <path class="cls-1" d="m387.34,157.57c-.69,0-1.33-.29-1.85-.84-.52-.49-.81-1.29-.81-2.33v-15.88c0-2.04.32-3.97.95-5.73.63-1.76,1.51-3.34,2.62-4.69,1.12-1.37,2.45-2.46,3.94-3.24,1.52-.79,3.17-1.2,4.91-1.2,1.15,0,1.79.54,2.13.99l.1.13.53,1.68v.15c0,.71-.2,1.37-.6,1.96-.33.5-.98,1.09-2.15,1.09-.95,0-1.81.22-2.65.67-.86.46-1.64,1.1-2.3,1.9-.66.78-1.18,1.72-1.55,2.77-.38,1.07-.57,2.25-.57,3.5v15.88c0,1.04-.28,1.84-.84,2.37-.66.66-1.37.8-1.84.8Z"/>
            <path class="cls-1" d="m397.09,124.66c.59,0,1.03.2,1.32.59l.43,1.38c0,.51-.14.98-.43,1.41-.29.43-.73.64-1.32.64-1.11,0-2.15.26-3.12.79-.98.53-1.84,1.24-2.59,2.14-.74.88-1.31,1.9-1.73,3.08-.42,1.19-.62,2.47-.62,3.84v15.88c0,.76-.18,1.31-.53,1.64-.35.35-.74.53-1.15.53s-.79-.18-1.13-.53c-.35-.33-.53-.88-.53-1.64v-15.88c0-1.93.3-3.73.89-5.39.59-1.66,1.41-3.12,2.45-4.39,1.04-1.27,2.25-2.27,3.63-2.99,1.38-.72,2.86-1.08,4.44-1.08m0-2c-1.91,0-3.71.44-5.37,1.31-1.61.84-3.04,2.02-4.25,3.49-1.18,1.44-2.12,3.12-2.79,4.99-.67,1.87-1.01,3.91-1.01,6.06v15.88c0,1.31.38,2.34,1.12,3.06.71.73,1.59,1.11,2.54,1.11.66,0,1.63-.19,2.55-1.09.75-.72,1.13-1.76,1.13-3.08v-15.88c0-1.14.17-2.21.51-3.18.33-.93.79-1.76,1.37-2.45.59-.71,1.25-1.25,2.01-1.66.69-.37,1.4-.55,2.17-.55,1.26,0,2.32-.54,2.98-1.53.51-.76.77-1.61.77-2.52v-.31l-.09-.29-.43-1.38-.1-.32-.2-.27c-.67-.9-1.71-1.4-2.93-1.4h0Z"/>
          </g>
          <g>
            <path class="cls-1" d="m419.3,157.68c-1.32,0-2.62-.22-3.84-.64-1.21-.42-2.35-1.02-3.4-1.77-1.05-.72-2.03-1.64-2.89-2.7-.86-1.02-1.6-2.2-2.21-3.48-.6-1.25-1.08-2.61-1.42-4.04-.34-1.44-.51-2.95-.51-4.51,0-2.33.38-4.56,1.12-6.64.72-2.07,1.73-3.9,3-5.45,1.28-1.56,2.81-2.82,4.53-3.74,1.74-.92,3.63-1.38,5.61-1.38s3.87.46,5.63,1.37c1.72.92,3.24,2.18,4.54,3.74,1.27,1.55,2.29,3.39,3.03,5.46l.03.09,1.06,6.47v.08c0,2.33-.37,4.55-1.09,6.6-.74,2.06-1.76,3.88-3.03,5.43-1.3,1.56-2.82,2.81-4.54,3.71-1.75.93-3.65,1.4-5.63,1.4Zm0-28.24c-1.21,0-2.32.27-3.38.82-1.07.57-2.03,1.37-2.84,2.35-.83,1.02-1.5,2.22-1.97,3.56-.49,1.36-.74,2.82-.74,4.36s.25,3.03.73,4.38c.47,1.35,1.13,2.54,1.96,3.54.82,1.01,1.77,1.8,2.84,2.36,1.07.58,2.18.85,3.38.85s2.33-.29,3.4-.85c1.08-.56,2.04-1.36,2.87-2.36.8-.98,1.46-2.14,1.94-3.46l.74-4.54c0-1.51-.25-2.95-.71-4.28-.48-1.34-1.15-2.55-1.97-3.57-.81-.98-1.78-1.77-2.87-2.35-1.05-.54-2.2-.82-3.39-.82Z"/>
            <path class="cls-1" d="m419.3,124.34c1.83,0,3.55.42,5.17,1.26,1.6.86,3.01,2.02,4.23,3.49,1.2,1.46,2.15,3.18,2.86,5.16l1.03,6.3c0,2.23-.34,4.32-1.03,6.27-.71,1.95-1.66,3.66-2.86,5.13-1.22,1.46-2.63,2.62-4.23,3.46-1.62.86-3.34,1.29-5.17,1.29-1.22,0-2.39-.2-3.51-.59-1.12-.39-2.17-.94-3.15-1.64-.99-.68-1.89-1.52-2.69-2.52-.82-.98-1.51-2.07-2.09-3.28-.58-1.19-1.03-2.47-1.35-3.84-.32-1.37-.48-2.79-.48-4.28,0-2.23.35-4.33,1.06-6.3.69-1.97,1.63-3.69,2.83-5.16,1.2-1.46,2.61-2.63,4.23-3.49,1.6-.84,3.32-1.26,5.14-1.26m0,28.33c1.36,0,2.65-.32,3.87-.97,1.2-.62,2.26-1.49,3.17-2.61.9-1.09,1.61-2.37,2.14-3.84l.77-4.72c0-1.66-.26-3.22-.77-4.69-.53-1.46-1.24-2.75-2.14-3.87-.91-1.09-1.97-1.96-3.17-2.61-1.22-.62-2.51-.94-3.87-.94s-2.64.31-3.84.94c-1.2.64-2.25,1.51-3.15,2.61-.91,1.11-1.63,2.4-2.14,3.87-.53,1.46-.79,3.03-.79,4.69s.26,3.25.79,4.72c.51,1.46,1.22,2.74,2.14,3.84.9,1.11,1.95,1.98,3.15,2.61,1.2.64,2.48.97,3.84.97m0-30.33c-2.14,0-4.19.5-6.07,1.49-1.85.98-3.48,2.32-4.85,3.99-1.35,1.64-2.41,3.58-3.18,5.77-.77,2.17-1.17,4.51-1.17,6.96,0,1.63.18,3.22.53,4.73.35,1.5.85,2.93,1.49,4.25.64,1.34,1.43,2.59,2.36,3.69.89,1.11,1.94,2.09,3.09,2.88,1.09.79,2.32,1.43,3.62,1.88,1.33.46,2.73.7,4.17.7,2.15,0,4.2-.51,6.1-1.52,1.82-.96,3.45-2.28,4.83-3.95,1.35-1.64,2.42-3.57,3.2-5.73.77-2.17,1.15-4.51,1.15-6.95v-.16l-.03-.16-1.03-6.3-.03-.18-.06-.17c-.78-2.18-1.85-4.12-3.2-5.75-1.38-1.67-3.01-3-4.83-3.98-1.92-1-3.97-1.5-6.11-1.5h0Zm0,28.33c-1.04,0-1.98-.24-2.9-.73-.97-.51-1.82-1.21-2.54-2.1-.78-.93-1.38-2.01-1.81-3.24-.45-1.26-.68-2.62-.68-4.06s.23-2.77.67-4.01c.44-1.26,1.04-2.35,1.8-3.28.73-.88,1.58-1.6,2.55-2.11.9-.47,1.85-.7,2.9-.7s2.01.23,2.95.72c.94.5,1.81,1.22,2.55,2.11.73.91,1.34,2.02,1.79,3.26.41,1.18.63,2.48.65,3.85l-.71,4.36c-.44,1.17-1.03,2.21-1.74,3.08-.74.9-1.59,1.6-2.55,2.1-.95.5-1.9.74-2.94.74h0Z"/>
          </g>
          <g>
            <path class="cls-1" d="m454.8,157.45c-1.74,0-3.39-.4-4.89-1.2-1.47-.78-2.77-1.85-3.86-3.18-1.11-1.35-1.99-2.93-2.62-4.69-.63-1.76-.95-3.67-.95-5.67v-29.59c0-.99.28-1.77.82-2.32.51-.53,1.15-.82,1.83-.82s1.32.28,1.86.82c.55.55.82,1.33.82,2.32v10.54h7.17c1.15,0,1.79.54,2.13.99l.1.13.53,1.68v.15c0,.71-.2,1.37-.6,1.96-.33.5-.98,1.09-2.15,1.09h-7.17v13.03c0,1.21.19,2.36.57,3.42.36,1.06.87,2,1.51,2.78.65.77,1.41,1.4,2.25,1.87.82.45,1.68.67,2.64.67,1.16,0,1.81.57,2.14,1.04.41.61.61,1.25.61,1.92,0,.71-.2,1.37-.6,1.96-.33.5-.98,1.09-2.15,1.09Z"/>
            <path class="cls-1" d="m445.14,110.98c.42,0,.8.18,1.15.53.35.35.53.89.53,1.61v11.54h8.17c.59,0,1.03.2,1.32.59l.43,1.38c0,.51-.14.98-.43,1.41-.29.43-.73.64-1.32.64h-8.17v14.03c0,1.33.21,2.58.62,3.75.4,1.17.96,2.2,1.68,3.08.74.88,1.59,1.58,2.55,2.11s2,.79,3.12.79c.59,0,1.03.21,1.32.62.29.43.43.88.43,1.35,0,.51-.14.98-.43,1.41s-.73.64-1.32.64c-1.59,0-3.06-.36-4.42-1.08-1.36-.72-2.55-1.7-3.56-2.93-1.04-1.27-1.86-2.73-2.45-4.39-.59-1.66-.89-3.44-.89-5.33v-29.59c0-.72.18-1.26.53-1.61.34-.35.71-.53,1.13-.53m0-2c-.97,0-1.86.4-2.57,1.15-.71.7-1.08,1.72-1.08,2.99v29.59c0,2.11.34,4.13,1.01,6,.67,1.87,1.6,3.55,2.79,4.99,1.17,1.43,2.57,2.58,4.16,3.43,1.64.87,3.45,1.32,5.36,1.32,1.26,0,2.32-.54,2.98-1.53.51-.76.77-1.61.77-2.52s-.26-1.7-.77-2.46c-.69-.98-1.74-1.5-2.98-1.5-.79,0-1.49-.18-2.16-.54-.74-.41-1.4-.96-1.98-1.64-.55-.67-1-1.5-1.32-2.44-.35-.97-.52-2.01-.52-3.1v-12.03h6.17c1.26,0,2.32-.54,2.98-1.53.51-.76.77-1.61.77-2.52v-.31l-.09-.29-.43-1.38-.1-.32-.2-.27c-.67-.9-1.71-1.4-2.93-1.4h-6.17v-9.54c0-1.27-.37-2.29-1.11-3.03-.92-.92-1.91-1.11-2.57-1.11h0Z"/>
          </g>
        </g>
        <g>
          <g>
            <path class="cls-1" d="m20.93,157.8c-1.83,0-3.63-.29-5.34-.87-1.7-.58-3.31-1.4-4.78-2.45-1.47-1.04-2.83-2.31-4.04-3.78-1.2-1.46-2.24-3.11-3.08-4.89-.86-1.75-1.53-3.67-1.99-5.68-.46-2.02-.7-4.15-.7-6.35s.23-4.31.7-6.34c.46-2.02,1.14-3.94,2-5.7.84-1.75,1.88-3.4,3.07-4.88,1.21-1.47,2.57-2.75,4.04-3.79,1.46-1.04,3.06-1.88,4.76-2.47,1.71-.58,3.5-.88,5.35-.88,2.73,0,5.34.65,7.75,1.92,1.23.62,2.4,1.39,3.48,2.26,1.08.91,2.09,1.94,3.03,3.07.54.64.83,1.38.83,2.19s-.25,1.48-.73,2.07c-.67.81-1.43.98-1.95.98s-1.33-.19-2.06-1.11c-.7-.83-1.46-1.61-2.26-2.29-.79-.67-1.63-1.24-2.52-1.69-.86-.46-1.75-.8-2.67-1.04-.94-.23-1.91-.35-2.88-.35-1.31,0-2.58.21-3.78.62-1.23.43-2.4,1.04-3.47,1.8-1.09.78-2.09,1.73-2.98,2.81-.89,1.08-1.66,2.31-2.3,3.64-.65,1.36-1.16,2.81-1.51,4.34-.37,1.55-.55,3.17-.55,4.82s.18,3.29.55,4.81c.35,1.55.86,3.01,1.51,4.34.64,1.34,1.41,2.56,2.3,3.65.89,1.1,1.89,2.04,2.97,2.81,1.08.79,2.24,1.39,3.47,1.81,1.21.41,2.48.62,3.79.62,1.97,0,3.85-.46,5.59-1.38,1.75-.91,3.32-2.2,4.67-3.83,1.25-1.54,2.27-3.37,3.03-5.42.65-1.74,1.05-3.63,1.2-5.63h-15.81c-1.16,0-1.81-.57-2.14-1.04-.42-.56-.64-1.22-.64-1.92s.22-1.38.64-1.98c.32-.47.96-1.07,2.14-1.07h18.55c.34,0,.68.08,1.03.24.37.2.64.42.87.67.24.3.42.58.57.89.17.41.24.77.24,1.13v1.32c0,1.63-.13,3.24-.4,4.8-.28,1.58-.68,3.1-1.17,4.52-.5,1.43-1.1,2.8-1.8,4.08-.72,1.28-1.53,2.48-2.41,3.55-1.81,2.21-3.94,3.95-6.32,5.18-2.42,1.26-5.06,1.9-7.83,1.9Z"/>
            <path class="cls-1" d="m20.93,110.72c2.58,0,5,.6,7.28,1.8,1.19.6,2.29,1.32,3.32,2.15,1.02.86,1.99,1.84,2.88,2.93.4.47.6.99.6,1.55s-.17,1.03-.5,1.44c-.34.41-.73.62-1.18.62s-.89-.24-1.27-.73c-.75-.9-1.55-1.71-2.4-2.43-.85-.72-1.75-1.33-2.71-1.82-.91-.49-1.87-.86-2.88-1.11-1.03-.25-2.07-.38-3.12-.38-1.43,0-2.79.22-4.11.67-1.33.47-2.57,1.11-3.72,1.94-1.17.84-2.23,1.84-3.17,2.99-.95,1.15-1.75,2.43-2.43,3.84-.69,1.43-1.22,2.94-1.59,4.54-.38,1.62-.58,3.3-.58,5.04s.19,3.44.58,5.04c.37,1.62.9,3.14,1.59,4.54.67,1.41,1.48,2.69,2.43,3.84.94,1.17,2,2.17,3.17,2.99,1.15.84,2.39,1.49,3.72,1.94,1.31.45,2.68.67,4.11.67,2.15,0,4.16-.5,6.05-1.49,1.87-.98,3.53-2.33,4.97-4.07,1.33-1.64,2.39-3.54,3.19-5.71.8-2.15,1.24-4.47,1.32-6.97h-16.86c-.59,0-1.03-.21-1.32-.62-.3-.41-.46-.86-.46-1.35s.15-.98.46-1.41c.29-.43.73-.64,1.32-.64h18.55c.19,0,.39.05.6.15.21.12.39.26.55.44.16.2.3.41.41.64.1.23.14.47.14.7v1.32c0,1.58-.13,3.12-.38,4.63-.27,1.52-.65,2.98-1.13,4.37-.48,1.39-1.06,2.7-1.73,3.93-.69,1.23-1.46,2.36-2.31,3.4-1.73,2.11-3.73,3.75-6.01,4.92-2.29,1.19-4.75,1.79-7.38,1.79-1.73,0-3.4-.27-5.02-.82-1.62-.55-3.12-1.32-4.52-2.31-1.41-1-2.69-2.2-3.84-3.6-1.15-1.41-2.14-2.97-2.95-4.69-.83-1.7-1.47-3.53-1.92-5.48-.45-1.95-.67-3.99-.67-6.12s.22-4.15.67-6.12c.45-1.95,1.09-3.78,1.92-5.48.82-1.7,1.8-3.26,2.95-4.69,1.15-1.41,2.43-2.61,3.84-3.6,1.39-1,2.9-1.78,4.52-2.34,1.6-.55,3.27-.82,5.02-.82m0-2c-1.96,0-3.87.31-5.67.93-1.8.63-3.49,1.51-5.03,2.61-1.54,1.09-2.97,2.42-4.23,3.96-1.25,1.55-2.33,3.26-3.21,5.09-.89,1.82-1.59,3.8-2.07,5.9-.48,2.11-.72,4.32-.72,6.57s.24,4.48.72,6.57c.48,2.09,1.18,4.08,2.08,5.91.87,1.84,1.95,3.55,3.2,5.08,1.26,1.54,2.69,2.87,4.24,3.97,1.54,1.1,3.23,1.97,5.03,2.58,1.82.61,3.72.93,5.66.93,2.94,0,5.73-.68,8.3-2.01,2.5-1.29,4.73-3.12,6.63-5.43.92-1.12,1.76-2.36,2.5-3.69.73-1.34,1.36-2.76,1.87-4.25.51-1.48.92-3.05,1.21-4.67.28-1.63.42-3.3.42-4.98v-1.32c0-.5-.1-.99-.29-1.46l-.02-.05-.02-.05c-.18-.38-.4-.73-.66-1.05l-.03-.04-.04-.04c-.3-.33-.66-.61-1.05-.83l-.06-.04-.07-.03c-.48-.22-.96-.34-1.45-.34h-18.55c-1.25,0-2.3.54-2.97,1.51-.54.77-.81,1.62-.81,2.54s.29,1.78.84,2.52c.66.93,1.71,1.44,2.94,1.44h14.7c-.19,1.51-.54,2.94-1.03,4.27-.72,1.96-1.69,3.69-2.87,5.15-1.25,1.51-2.72,2.71-4.34,3.56-1.62.85-3.3,1.27-5.13,1.27-1.2,0-2.36-.19-3.46-.57-1.14-.39-2.21-.94-3.19-1.66-1.04-.73-1.97-1.61-2.79-2.63-.85-1.04-1.58-2.19-2.18-3.45-.63-1.28-1.11-2.66-1.44-4.12-.35-1.47-.53-3.01-.53-4.6s.18-3.12.52-4.58c.34-1.46.82-2.85,1.44-4.14.61-1.27,1.34-2.42,2.17-3.44.83-1.01,1.77-1.9,2.79-2.63.99-.7,2.07-1.27,3.22-1.67,1.08-.37,2.24-.56,3.44-.56.89,0,1.78.11,2.64.32.84.21,1.66.53,2.42.94.85.43,1.63.96,2.36,1.58.75.64,1.48,1.37,2.15,2.17.97,1.21,2.07,1.47,2.82,1.47,1.04,0,2.01-.48,2.72-1.35.63-.76.96-1.7.96-2.7s-.37-2.02-1.08-2.85c-.95-1.15-2-2.23-3.12-3.16-1.15-.94-2.39-1.74-3.7-2.4-2.52-1.33-5.29-2.02-8.18-2.02h0Z"/>
          </g>
          <g>
            <path class="cls-1" d="m75.19,157.45c-.49,0-1.21-.15-1.87-.88-.51-.51-.79-1.29-.79-2.28v-.49c-.87.82-1.81,1.52-2.83,2.09-1.8,1.04-3.8,1.56-5.92,1.56-1.31,0-2.59-.22-3.79-.64-1.18-.4-2.32-.99-3.36-1.75-1.03-.72-1.99-1.62-2.83-2.67-.84-1-1.57-2.16-2.17-3.42-.59-1.23-1.05-2.57-1.37-3.99-.33-1.41-.5-2.9-.5-4.44,0-2.29.37-4.49,1.09-6.52.71-2.03,1.7-3.84,2.96-5.37,1.25-1.52,2.74-2.75,4.44-3.65,1.73-.9,3.59-1.35,5.54-1.35,1.3,0,2.58.2,3.8.61,1.22.42,2.36,1.01,3.41,1.74,1.03.73,1.98,1.62,2.84,2.64.84,1.05,1.57,2.19,2.17,3.42.59,1.26,1.06,2.61,1.4,4.02.32,1.43.48,2.92.48,4.45v13.74c0,.99-.28,1.77-.82,2.32-.66.7-1.38.85-1.86.85Zm-11.41-27.77c-1.16,0-2.26.28-3.28.82-1.06.56-1.99,1.33-2.77,2.29-.81.99-1.46,2.15-1.93,3.46-.47,1.33-.71,2.77-.71,4.29s.24,2.96.71,4.29c.47,1.33,1.12,2.5,1.92,3.48.78.97,1.71,1.74,2.77,2.3,1.02.55,2.12.82,3.28.82s2.29-.28,3.33-.82c1.04-.56,1.99-1.33,2.8-2.3.78-.95,1.42-2.1,1.89-3.39l.74-4.46c0-1.49-.25-2.91-.71-4.21-.47-1.31-1.12-2.47-1.92-3.45-.8-.96-1.75-1.74-2.8-2.3-1.03-.54-2.15-.82-3.32-.82Z"/>
            <path class="cls-1" d="m63.78,124.66c1.2,0,2.36.19,3.48.56,1.12.39,2.17.93,3.15,1.61.96.68,1.84,1.5,2.64,2.46.78.98,1.47,2.05,2.04,3.22.56,1.19,1,2.46,1.32,3.81.3,1.35.46,2.75.46,4.22v13.74c0,.72-.18,1.26-.53,1.61-.35.37-.74.56-1.15.56s-.79-.19-1.13-.56c-.35-.35-.53-.89-.53-1.61v-3.11c-1.22,1.62-2.66,2.9-4.32,3.84-1.67.96-3.48,1.44-5.43,1.44-1.2,0-2.35-.2-3.46-.59-1.1-.37-2.14-.91-3.1-1.61-.98-.68-1.86-1.51-2.64-2.49-.8-.96-1.48-2.03-2.04-3.22-.56-1.17-.99-2.43-1.3-3.78-.32-1.35-.48-2.75-.48-4.22,0-2.19.34-4.25,1.03-6.18.67-1.93,1.6-3.62,2.79-5.07,1.17-1.43,2.55-2.56,4.13-3.4,1.59-.82,3.28-1.23,5.07-1.23m0,27.77c1.35,0,2.61-.31,3.8-.94,1.17-.62,2.2-1.47,3.1-2.55.88-1.07,1.58-2.33,2.09-3.78l.77-4.63c0-1.64-.26-3.18-.77-4.63-.51-1.43-1.21-2.68-2.09-3.75-.9-1.07-1.93-1.92-3.1-2.55-1.19-.62-2.45-.94-3.8-.94s-2.58.31-3.75.94c-1.19.62-2.21,1.47-3.07,2.55-.88,1.07-1.58,2.32-2.09,3.75-.51,1.45-.77,2.99-.77,4.63s.26,3.18.77,4.63c.51,1.45,1.21,2.71,2.09,3.78.86,1.07,1.89,1.92,3.07,2.55,1.17.62,2.42.94,3.75.94m0-29.77c-2.11,0-4.12.49-5.99,1.45-1.83.97-3.43,2.28-4.76,3.91-1.33,1.62-2.38,3.53-3.13,5.68-.76,2.13-1.14,4.43-1.14,6.84,0,1.61.18,3.19.53,4.68.33,1.47.82,2.88,1.44,4.18.63,1.33,1.41,2.56,2.31,3.64.87,1.09,1.9,2.06,3.03,2.85,1.09.8,2.31,1.43,3.61,1.87,1.28.45,2.67.69,4.1.69,2.3,0,4.46-.57,6.43-1.7.53-.3,1.04-.63,1.53-.99.18.59.47,1.09.88,1.51.9.97,1.9,1.18,2.58,1.18s1.66-.2,2.59-1.16c.73-.74,1.1-1.75,1.1-3.01v-13.74c0-1.6-.17-3.17-.51-4.66-.36-1.5-.85-2.91-1.46-4.22-.65-1.33-1.42-2.54-2.29-3.62-.93-1.12-1.95-2.06-3.04-2.84-1.14-.79-2.36-1.42-3.65-1.87-1.35-.45-2.73-.67-4.14-.67h0Zm0,27.77c-1,0-1.92-.23-2.81-.7-.96-.51-1.76-1.17-2.46-2.04-.74-.9-1.33-1.97-1.76-3.19-.43-1.22-.65-2.55-.65-3.96s.22-2.74.65-3.96c.43-1.2,1.02-2.26,1.75-3.15.71-.88,1.51-1.55,2.46-2.05.89-.48,1.81-.71,2.82-.71s1.96.23,2.86.71c.93.5,1.77,1.19,2.5,2.06.72.88,1.31,1.94,1.74,3.14.41,1.17.63,2.45.65,3.79l-.71,4.28c-.43,1.15-1,2.17-1.69,3.02-.72.86-1.56,1.55-2.5,2.05-.89.47-1.83.7-2.85.7h0Z"/>
          </g>
          <g>
            <path class="cls-1" d="m89.42,157.57c-.69,0-1.33-.29-1.85-.84-.52-.49-.81-1.29-.81-2.33v-15.88c0-2.04.32-3.97.95-5.73.63-1.76,1.51-3.34,2.62-4.69,1.12-1.37,2.45-2.46,3.94-3.24,1.52-.79,3.17-1.2,4.91-1.2,1.15,0,1.79.54,2.13.99l.1.13.53,1.68v.15c0,.71-.2,1.37-.6,1.96-.33.5-.98,1.09-2.15,1.09-.95,0-1.81.22-2.65.67-.86.46-1.64,1.1-2.3,1.9-.66.78-1.18,1.72-1.55,2.77-.38,1.07-.57,2.25-.57,3.5v15.88c0,1.04-.28,1.84-.84,2.37-.52.52-1.16.8-1.84.8Z"/>
            <path class="cls-1" d="m99.18,124.66c.59,0,1.03.2,1.32.59l.43,1.38c0,.51-.14.98-.43,1.41-.29.43-.73.64-1.32.64-1.1,0-2.15.26-3.12.79-.98.53-1.84,1.24-2.59,2.14-.74.88-1.31,1.9-1.73,3.08-.42,1.19-.62,2.47-.62,3.84v15.88c0,.76-.18,1.31-.53,1.64-.35.35-.74.53-1.15.53s-.79-.18-1.13-.53c-.35-.33-.53-.88-.53-1.64v-15.88c0-1.93.3-3.73.89-5.39.59-1.66,1.41-3.12,2.45-4.39,1.04-1.27,2.25-2.27,3.63-2.99,1.38-.72,2.86-1.08,4.44-1.08m0-2c-1.91,0-3.71.44-5.37,1.31-1.61.84-3.04,2.02-4.24,3.49-1.18,1.44-2.12,3.12-2.79,4.99-.67,1.87-1.01,3.91-1.01,6.06v15.88c0,1.31.38,2.34,1.12,3.06.71.73,1.59,1.11,2.54,1.11.66,0,1.63-.19,2.55-1.09.75-.72,1.13-1.76,1.13-3.08v-15.88c0-1.14.17-2.21.51-3.18.33-.93.79-1.76,1.37-2.45.59-.7,1.26-1.26,2.01-1.66.69-.37,1.4-.55,2.17-.55,1.26,0,2.32-.54,2.98-1.53.51-.76.77-1.61.77-2.52v-.31l-.09-.29-.43-1.38-.1-.32-.2-.27c-.67-.9-1.71-1.4-2.93-1.4h0Z"/>
          </g>
          <g>
            <path class="cls-1" d="m132.56,157.45c-.49,0-1.21-.15-1.87-.88-.51-.51-.79-1.29-.79-2.28v-.49c-.87.82-1.81,1.52-2.83,2.09-1.8,1.04-3.8,1.56-5.92,1.56-1.31,0-2.59-.22-3.79-.64-1.18-.4-2.32-.99-3.36-1.75-1.03-.72-1.99-1.62-2.83-2.67-.84-1-1.57-2.16-2.17-3.42-.59-1.23-1.05-2.57-1.37-3.99-.33-1.41-.5-2.9-.5-4.44,0-2.29.37-4.49,1.09-6.52.71-2.03,1.7-3.84,2.96-5.37,1.25-1.52,2.74-2.75,4.44-3.65,1.73-.9,3.59-1.35,5.54-1.35,1.3,0,2.58.2,3.8.61,1.22.42,2.36,1.01,3.41,1.74,1.03.73,1.98,1.62,2.84,2.64.84,1.05,1.57,2.19,2.17,3.42.59,1.26,1.06,2.61,1.4,4.02.32,1.43.48,2.92.48,4.45v13.74c0,.99-.28,1.77-.82,2.32-.66.7-1.38.85-1.86.85Zm-11.41-27.77c-1.16,0-2.26.28-3.28.82-1.06.56-1.99,1.33-2.77,2.29-.81.99-1.46,2.15-1.93,3.46-.47,1.33-.71,2.77-.71,4.29s.24,2.96.71,4.29c.47,1.33,1.12,2.5,1.92,3.48.78.97,1.71,1.74,2.77,2.3,1.02.55,2.12.82,3.28.82s2.29-.28,3.33-.82c1.04-.56,1.99-1.33,2.8-2.3.78-.95,1.42-2.1,1.89-3.39l.74-4.46c0-1.49-.25-2.91-.71-4.21-.47-1.31-1.12-2.47-1.92-3.45-.8-.96-1.75-1.74-2.8-2.3-1.03-.54-2.15-.82-3.32-.82Z"/>
            <path class="cls-1" d="m121.15,124.66c1.2,0,2.36.19,3.48.56,1.12.39,2.17.93,3.15,1.61.96.68,1.84,1.5,2.64,2.46.78.98,1.47,2.05,2.04,3.22.56,1.19,1,2.46,1.32,3.81.3,1.35.46,2.75.46,4.22v13.74c0,.72-.18,1.26-.53,1.61-.35.37-.74.56-1.15.56s-.79-.19-1.13-.56c-.35-.35-.53-.89-.53-1.61v-3.11c-1.22,1.62-2.66,2.9-4.32,3.84-1.67.96-3.48,1.44-5.43,1.44-1.2,0-2.35-.2-3.46-.59-1.1-.37-2.14-.91-3.1-1.61-.98-.68-1.86-1.51-2.64-2.49-.8-.96-1.48-2.03-2.04-3.22-.56-1.17-.99-2.43-1.3-3.78-.32-1.35-.48-2.75-.48-4.22,0-2.19.34-4.25,1.03-6.18.67-1.93,1.6-3.62,2.79-5.07,1.17-1.43,2.55-2.56,4.13-3.4,1.59-.82,3.28-1.23,5.07-1.23m0,27.77c1.35,0,2.61-.31,3.8-.94,1.17-.62,2.2-1.47,3.1-2.55.88-1.07,1.58-2.33,2.09-3.78l.77-4.63c0-1.64-.26-3.18-.77-4.63-.51-1.43-1.21-2.68-2.09-3.75-.9-1.07-1.93-1.92-3.1-2.55-1.19-.62-2.45-.94-3.8-.94s-2.58.31-3.75.94c-1.19.62-2.21,1.47-3.07,2.55-.88,1.07-1.58,2.32-2.09,3.75-.51,1.45-.77,2.99-.77,4.63s.26,3.18.77,4.63c.51,1.45,1.21,2.71,2.09,3.78.86,1.07,1.89,1.92,3.07,2.55,1.17.62,2.42.94,3.75.94m0-29.77c-2.11,0-4.12.49-5.99,1.45-1.83.97-3.43,2.28-4.76,3.91-1.33,1.62-2.38,3.53-3.13,5.68-.76,2.13-1.14,4.43-1.14,6.84,0,1.61.18,3.19.53,4.68.33,1.47.82,2.88,1.44,4.18.63,1.33,1.41,2.56,2.31,3.64.87,1.09,1.9,2.06,3.03,2.85,1.09.8,2.31,1.43,3.61,1.87,1.28.45,2.67.69,4.1.69,2.3,0,4.46-.57,6.43-1.7.53-.3,1.04-.63,1.53-.99.18.59.47,1.09.88,1.51.9.97,1.9,1.18,2.58,1.18s1.66-.2,2.59-1.16c.73-.74,1.1-1.75,1.1-3.01v-13.74c0-1.6-.17-3.17-.51-4.66-.36-1.5-.85-2.91-1.46-4.22-.65-1.33-1.42-2.54-2.29-3.62-.93-1.12-1.95-2.06-3.04-2.84-1.14-.79-2.36-1.42-3.65-1.87-1.35-.45-2.73-.67-4.14-.67h0Zm0,27.77c-1,0-1.92-.23-2.81-.7-.96-.51-1.76-1.17-2.46-2.04-.74-.9-1.33-1.97-1.76-3.19-.43-1.22-.65-2.55-.65-3.96s.22-2.74.65-3.96c.43-1.2,1.02-2.26,1.75-3.15.71-.88,1.51-1.55,2.46-2.05.89-.48,1.81-.71,2.82-.71s1.96.23,2.86.71c.93.5,1.77,1.19,2.5,2.06.72.88,1.31,1.94,1.74,3.14.41,1.17.63,2.45.65,3.79l-.71,4.28c-.43,1.15-1,2.17-1.69,3.02-.72.86-1.56,1.55-2.5,2.05-.89.47-1.83.7-2.85.7h0Z"/>
          </g>
          <g>
            <path class="cls-1" d="m157.87,171.19c-1.86,0-3.69-.44-5.42-1.31-.84-.42-1.66-.94-2.41-1.55-.76-.59-1.47-1.26-2.11-1.99-.58-.7-.85-1.46-.85-2.28s.24-1.48.72-2.03c.49-.6,1.16-.93,1.91-.93.33,0,.67.08,1.02.23.35.16.66.4.97.72.85,1.03,1.81,1.79,2.9,2.31.5.25,1.04.44,1.59.58.51.11,1.08.17,1.68.17,1.21,0,2.36-.29,3.42-.85,1.09-.58,2.07-1.38,2.89-2.39.84-1.02,1.51-2.22,1.99-3.57.49-1.37.73-2.84.73-4.38v-.13c-.87.82-1.81,1.52-2.83,2.09-1.8,1.04-3.8,1.56-5.92,1.56-1.31,0-2.59-.22-3.79-.64-1.18-.4-2.32-.99-3.36-1.75-1.03-.72-1.99-1.62-2.83-2.67-.84-1-1.57-2.16-2.17-3.42-.59-1.23-1.05-2.57-1.37-3.99-.33-1.41-.5-2.9-.5-4.44,0-2.29.37-4.49,1.09-6.52.71-2.03,1.7-3.84,2.96-5.37,1.25-1.52,2.74-2.75,4.44-3.65,1.73-.9,3.59-1.35,5.54-1.35,1.3,0,2.58.2,3.8.61,1.22.42,2.36,1.01,3.41,1.74,1.03.73,1.98,1.62,2.84,2.64.84,1.05,1.57,2.19,2.17,3.42.59,1.26,1.06,2.61,1.4,4.02.32,1.43.48,2.92.48,4.45v13.39c0,2.33-.38,4.56-1.12,6.63-.74,2.05-1.77,3.89-3.05,5.45-1.3,1.58-2.83,2.85-4.56,3.76-1.77.93-3.68,1.41-5.66,1.41Zm.29-41.51c-1.16,0-2.26.28-3.28.82-1.06.56-1.99,1.33-2.77,2.29-.81.99-1.46,2.15-1.93,3.46-.47,1.33-.71,2.77-.71,4.29s.24,2.96.71,4.29c.47,1.33,1.12,2.5,1.92,3.48.78.97,1.71,1.74,2.77,2.3,1.02.55,2.12.82,3.28.82s2.29-.28,3.33-.82c1.04-.56,1.99-1.33,2.8-2.3.78-.95,1.42-2.1,1.89-3.39l.74-4.46c0-1.49-.25-2.91-.71-4.21-.47-1.31-1.12-2.47-1.92-3.45-.8-.96-1.75-1.74-2.8-2.3-1.03-.54-2.15-.82-3.32-.82Z"/>
            <path class="cls-1" d="m158.16,124.66c1.2,0,2.36.19,3.48.56,1.12.39,2.17.93,3.15,1.61.96.68,1.84,1.5,2.64,2.46.78.98,1.47,2.05,2.04,3.22.56,1.19,1,2.46,1.32,3.81.3,1.35.46,2.75.46,4.22v13.39c0,2.23-.35,4.33-1.06,6.3-.71,1.95-1.67,3.67-2.88,5.16-1.22,1.48-2.63,2.66-4.25,3.52-1.63.86-3.36,1.29-5.19,1.29-1.71,0-3.37-.4-4.97-1.2-.79-.39-1.53-.87-2.23-1.44-.72-.57-1.39-1.19-1.99-1.88-.4-.49-.6-1.03-.6-1.61,0-.55.16-1.01.48-1.38.32-.39.7-.59,1.15-.59.19,0,.4.05.62.15.21.1.42.26.65.5.9,1.09,1.96,1.93,3.19,2.52.56.27,1.15.49,1.78.64.61.14,1.25.21,1.92.21,1.38,0,2.67-.32,3.89-.97,1.22-.64,2.28-1.52,3.19-2.64.91-1.11,1.63-2.4,2.16-3.87.53-1.48.79-3.06.79-4.72v-2.75c-1.22,1.62-2.66,2.9-4.32,3.84-1.67.96-3.48,1.44-5.43,1.44-1.2,0-2.35-.2-3.46-.59-1.1-.37-2.14-.91-3.1-1.61-.98-.68-1.86-1.51-2.64-2.49-.8-.96-1.48-2.03-2.04-3.22-.56-1.17-.99-2.43-1.3-3.78-.32-1.35-.48-2.75-.48-4.22,0-2.19.34-4.25,1.03-6.18.67-1.93,1.6-3.62,2.79-5.07,1.17-1.43,2.55-2.56,4.13-3.4,1.59-.82,3.28-1.23,5.07-1.23m0,27.77c1.35,0,2.61-.31,3.8-.94,1.17-.62,2.2-1.47,3.1-2.55.88-1.07,1.58-2.33,2.09-3.78l.77-4.63c0-1.64-.26-3.18-.77-4.63-.51-1.43-1.21-2.68-2.09-3.75-.9-1.07-1.93-1.92-3.1-2.55-1.19-.62-2.45-.94-3.8-.94s-2.58.31-3.75.94c-1.19.62-2.21,1.47-3.07,2.55-.88,1.07-1.58,2.32-2.09,3.75-.51,1.45-.77,2.99-.77,4.63s.26,3.18.77,4.63c.51,1.45,1.21,2.71,2.09,3.78.86,1.07,1.89,1.92,3.07,2.55,1.17.62,2.42.94,3.75.94m0-29.77c-2.11,0-4.12.49-5.99,1.45-1.83.97-3.43,2.28-4.76,3.91-1.33,1.62-2.38,3.53-3.13,5.68-.76,2.13-1.14,4.43-1.14,6.84,0,1.61.18,3.19.53,4.68.33,1.47.82,2.88,1.44,4.18.63,1.33,1.41,2.56,2.31,3.64.87,1.09,1.9,2.06,3.03,2.85,1.09.8,2.31,1.43,3.61,1.87,1.28.45,2.67.69,4.1.69,2.3,0,4.46-.57,6.43-1.7.4-.22.78-.46,1.16-.72-.11.67-.28,1.32-.5,1.95-.45,1.24-1.06,2.34-1.82,3.27-.74.9-1.61,1.62-2.58,2.14-.93.49-1.9.73-2.96.73-.52,0-1.02-.05-1.48-.16-.44-.11-.91-.28-1.34-.49-.99-.47-1.81-1.12-2.52-1.99l-.05-.06-.05-.06c-.4-.42-.81-.72-1.24-.92h-.03s-.03-.02-.03-.02c-.48-.21-.96-.31-1.42-.31-1.04,0-1.99.46-2.68,1.3-.62.73-.95,1.65-.95,2.67s.36,2.04,1.05,2.88l.03.03.03.03c.68.77,1.44,1.48,2.25,2.12.8.64,1.67,1.2,2.58,1.65,1.87.94,3.84,1.41,5.86,1.41,2.15,0,4.2-.51,6.12-1.52,1.85-.98,3.49-2.33,4.87-4.02,1.36-1.65,2.44-3.59,3.22-5.75.78-2.19,1.18-4.53,1.18-6.98v-13.39c0-1.6-.17-3.17-.51-4.66-.36-1.5-.85-2.91-1.46-4.22-.65-1.33-1.42-2.54-2.29-3.62-.93-1.12-1.95-2.06-3.04-2.84-1.14-.79-2.36-1.42-3.65-1.87-1.35-.45-2.73-.67-4.14-.67h0Zm0,27.77c-1,0-1.92-.23-2.81-.7-.96-.51-1.76-1.17-2.46-2.04-.74-.9-1.33-1.97-1.76-3.19-.43-1.22-.65-2.55-.65-3.96s.22-2.74.65-3.96c.43-1.2,1.02-2.26,1.75-3.15.71-.88,1.51-1.55,2.46-2.05.89-.48,1.81-.71,2.82-.71s1.96.23,2.86.71c.93.5,1.77,1.19,2.5,2.06.72.88,1.31,1.94,1.74,3.14.41,1.17.63,2.45.65,3.79l-.71,4.28c-.43,1.15-1,2.17-1.69,3.02-.72.86-1.56,1.55-2.5,2.05-.89.47-1.83.7-2.85.7h0Z"/>
          </g>
          <g>
            <path class="cls-1" d="m195.41,157.68c-1.32,0-2.61-.22-3.84-.64-1.21-.42-2.35-1.02-3.4-1.77-1.05-.72-2.03-1.64-2.89-2.7-.85-1.02-1.6-2.2-2.21-3.48-.6-1.25-1.08-2.61-1.42-4.04-.34-1.44-.51-2.95-.51-4.51,0-2.33.37-4.56,1.09-6.63.71-2.05,1.7-3.88,2.95-5.43,1.24-1.56,2.75-2.82,4.46-3.74,1.74-.93,3.63-1.41,5.61-1.41s3.88.46,5.59,1.38c1.69.92,3.18,2.18,4.44,3.74,1.29,1.61,2.29,3.44,3,5.45.71,2.03,1.07,4.18,1.07,6.4v.56c0,.38-.07.76-.22,1.11-.13.34-.33.67-.57.94-.2.24-.46.47-.75.65-.39.22-.77.32-1.15.32h-19.81c.23.86.54,1.68.93,2.44.55,1.12,1.22,2.07,2.02,2.84.79.8,1.67,1.42,2.62,1.86.94.43,1.94.64,2.97.64.61,0,1.21-.08,1.78-.23.6-.14,1.16-.35,1.7-.63,1.11-.57,2.12-1.43,2.98-2.54.25-.37.58-.67.95-.86.38-.18.74-.26,1.11-.26.74,0,1.41.32,1.94.93.48.59.72,1.28.72,2.06,0,.68-.23,1.39-.69,2.09-.7.91-1.44,1.67-2.24,2.34-.8.66-1.66,1.24-2.54,1.72-.88.47-1.8.82-2.75,1.03-.94.23-1.94.35-2.96.35Zm8.35-19.87c-.16-.84-.4-1.65-.7-2.41-.42-1.05-.99-2.02-1.68-2.88-.8-.96-1.74-1.73-2.79-2.29-1.01-.52-2.13-.79-3.32-.79-1.08,0-2.11.23-3.08.69-.98.47-1.87,1.12-2.63,1.94-.79.84-1.45,1.85-1.96,3.01-.39.85-.68,1.77-.86,2.73h17.01Z"/>
            <path class="cls-1" d="m195.26,124.34c1.84,0,3.55.42,5.12,1.26,1.57.86,2.95,2.02,4.13,3.49,1.22,1.52,2.16,3.24,2.83,5.16.67,1.93,1.01,3.96,1.01,6.06v.56c0,.25-.05.5-.14.73-.1.25-.22.47-.38.64-.16.2-.34.35-.53.47-.21.12-.42.18-.62.18h-21.04c.24,1.41.66,2.71,1.27,3.9.59,1.21,1.33,2.25,2.21,3.11.86.88,1.83,1.56,2.91,2.05,1.07.49,2.2.73,3.39.73.7,0,1.38-.09,2.04-.26.66-.16,1.29-.39,1.9-.7,1.25-.64,2.35-1.58,3.32-2.81.19-.27.4-.47.62-.59.21-.1.42-.15.65-.15.45,0,.84.2,1.18.59.32.39.48.86.48,1.41,0,.49-.18,1.01-.53,1.55-.61.78-1.29,1.48-2.04,2.11-.75.62-1.55,1.16-2.38,1.61-.8.43-1.63.74-2.5.94-.88.21-1.79.32-2.74.32-1.22,0-2.39-.2-3.51-.59-1.12-.39-2.17-.94-3.15-1.64-.99-.68-1.89-1.52-2.69-2.52-.82-.98-1.51-2.07-2.09-3.28-.58-1.19-1.02-2.47-1.35-3.84-.32-1.37-.48-2.79-.48-4.28,0-2.23.34-4.33,1.03-6.3.67-1.95,1.6-3.66,2.79-5.13,1.17-1.46,2.55-2.63,4.16-3.49,1.6-.86,3.31-1.29,5.14-1.29m-9.68,14.47h19.34c-.16-1.35-.47-2.61-.94-3.78-.46-1.15-1.07-2.2-1.83-3.13-.9-1.07-1.93-1.92-3.1-2.55-1.17-.61-2.43-.91-3.8-.91-1.23,0-2.4.26-3.51.79-1.1.53-2.08,1.25-2.93,2.17-.86.92-1.58,2.01-2.14,3.28-.58,1.27-.95,2.65-1.1,4.13m9.68-16.47c-2.15,0-4.2.51-6.09,1.53-1.83.98-3.44,2.33-4.77,4-1.32,1.63-2.37,3.56-3.11,5.72-.76,2.17-1.14,4.51-1.14,6.95,0,1.63.18,3.22.53,4.73.35,1.5.85,2.93,1.49,4.25.64,1.35,1.44,2.59,2.36,3.69.89,1.11,1.94,2.09,3.09,2.88,1.09.79,2.32,1.43,3.62,1.88,1.33.46,2.73.7,4.17.7,1.1,0,2.18-.13,3.21-.38,1-.23,2.01-.61,2.97-1.12.95-.51,1.86-1.13,2.71-1.83.86-.71,1.65-1.53,2.34-2.42l.06-.07.05-.08c.56-.87.85-1.76.85-2.64,0-1-.32-1.93-.93-2.67-.74-.86-1.7-1.32-2.72-1.32-.52,0-1.02.11-1.5.34l-.04.02-.04.02c-.49.26-.93.65-1.3,1.16-.77.98-1.66,1.73-2.63,2.23-.46.24-.95.42-1.44.53h-.03s-.03.01-.03.01c-.49.13-1,.2-1.53.2-.9,0-1.74-.18-2.56-.55-.84-.38-1.62-.93-2.31-1.63-.74-.72-1.35-1.58-1.84-2.58-.17-.33-.32-.67-.46-1.02h18.43c.55,0,1.09-.15,1.6-.43l.03-.02.03-.02c.37-.23.71-.52,1-.87.31-.35.55-.76.73-1.22.19-.47.28-.96.28-1.47v-.56c0-2.32-.38-4.59-1.12-6.72-.75-2.12-1.81-4.06-3.16-5.75-1.35-1.67-2.94-3.01-4.73-3.99-1.87-1-3.91-1.51-6.08-1.51h0Zm-7.25,14.47c.14-.45.3-.89.49-1.3.47-1.07,1.07-1.99,1.77-2.74.68-.74,1.47-1.32,2.34-1.73.84-.4,1.71-.6,2.65-.6,1.05,0,1.99.22,2.88.68.91.49,1.76,1.18,2.48,2.06.6.75,1.12,1.63,1.51,2.6.13.33.25.68.35,1.03h-14.47Z"/>
          </g>
        </g>
      </g>
      <g>
        <path class="cls-1" d="m85.44,58s2.47-14.02,3.94-16.97c1.38-2.78,4.49-5.76,7.16-7.68,3.34-2.39,10.73-6.03,12.13-6.97,3.84-2.58,10.58-8.26,12-9.16s11.97-7.71,15.5-9.68c3.92-2.18,10.11-4.65,14.32-5.71C153.9.98,166.16,0,176.9,0c10.84,0,30.93.51,38.32,1.35,7.16.82,15.63,2.32,23.24,4,7.61,1.68,19.94,5.7,24.27,7.61,3.93,1.74,13.02,6.91,16.38,9.36,3.35,2.45,14.06,10.9,14.06,10.9,0,0-12.81-8.38-19.65-12.25-6.84-3.87-19.87-8.86-29.16-10.67-9.29-1.81-20.87-3.77-28.81-4.4-6.15-.49-13.87-.42-13.87-.42,0,0,4.58,4.5,7.35,7.87,2.25,2.73,5.75,7.82,8.02,11.1,1.69,2.44,4.62,6.45,4.62,6.45,0,0,30.21,2.19,37.75,2.97,7.54.77,35.02,4.13,42.25,5.29s28.9,4.52,34.32,5.55c5.42,1.03,25.81,6.84,28.9,7.61s10.71,4,10.71,4c0,0-10.04-2.45-16.38-3.1-6.33-.65-16.14-1.94-21.17-2.06s-9.23.32-12.84,1.1c-2.14.46-5.61,2.39-5.61,2.39,0,0-12.97-5.61-20.32-7.74-6.98-2.02-37.98-7.2-47.22-8.52s-31.55-3.48-34.13-3.87c0,0-6.13-10.39-12.52-17.94-3.96-4.68-12.39-10.58-13.81-10.97s-13.94-.9-21.55-.77-18.97.77-24.77,3.48-12.26,5.03-18.58,9.94c-6.32,4.9-10.97,9.32-12.13,10.6,0,0,21.94.5,33.16.76s26.71,1.55,33.68,3.1,8.86,2.06,8.86,2.06h-40.35s-30.06-.13-35.1,0-12.9,3.74-17.03,7.35-9.81,9.42-12.39,15.87Z"/>
        <path class="cls-1" d="m201.76,38.13c9.42.43,25.77,1.13,35,1.94,11.13.97,21.83,2.37,31.26,3.87,10.13,1.61,26.27,4.76,33,6.58,7.39,2,12.99,5.36,15.19,7.48,3.68,3.55,5.68,6.45,7.61,9.48,1.75,2.74,2.74,4.52,2.74,4.52,0,0-9.25-9.66-16.65-14-9-5.29-19.58-6.97-25.94-8.06-3.91-.67-6.1-1.26-5.52.68s3.96,6.41,6.19,8.52c2.84,2.68,5.87,5.52,13.55,8.13,9.34,3.18,20.03,4.65,21.87,4.74s-14.61,1.06-20.32.77c-5.71-.29-15.97-2.13-22.45-6.68-6.48-4.55-10.81-7.94-13.06-9.68-1.17-.9-6.19-4.1-11.71-4.45-5.22-.34-9.39.88-15.97,3.78-6.58,2.9-8.03,4.06-19.16,4.06s-28.84-.1-36.58,0-43.37.04-46.88.03c-.16,0-.38,0-.54,0-1.16-.04-4.84.34-9.29-3.42-6.19-5.23-15.15-5.18-19.8-2.74-3.19,1.67-7.68,4.68-10.2,6.52s-7.98,5.18-7.98,5.18c0,0,3.48-6.92,5.76-10.31s8.47-9.39,12.44-11.61c3.97-2.23,7.67-4.95,20.15-5.39,13.03-.45,37.82-.45,50.52-.3,8.52.1,16.9-.09,26.77.37Z"/>
        <path class="cls-1" d="m324.82,60.87s.58,3.68,3.68,8.03,9.84,10.04,13.26,11.56c3.58,1.6,12.1,3.33,15.68,3.53,4.21.24,8.17.23,12.19,0,2.52-.15,6.48-1.26,8.42-2.13s-5.37,1.35-16.26.77c-5.32-.28-16.26-1.45-22.45-6.68-4.66-3.93-6.71-8.27-8.13-11.42-1.14-2.53-.97-4.84.58-5.32s3.77-.58,8.13-.58,9,.29,14.61.58c5.61.29,13.84.39,16.35,1.26,2.52.87,5.82,2.65,7.36,5.42,1.76,3.17,2.25,4.19,2.42,6.93.16,2.56.97-3.85-.48-7.41s-3.97-5.52-7.26-6.77-10.3-2.04-16.16-2.56c-2.51-.22-13.5-1.09-18.15-1.31-4.6-.21-10.79-1.15-12.53.97s-1.26,5.12-1.26,5.12Z"/>
        <path class="cls-1" d="m97.4,63.1s3.36-4.19,5.74-5.46c4.16-2.22,8.17-2.11,12.64-1.02,3.32.81,5.97,2.29,9.1,6.97l112.06.39s1.51-3.47,4.69-5.62c3.34-2.26,6.29-2.48,9.39-2.48,4.45,0,10.21.85,11.95,7.67l-13.84-.15-5.71,9.44,4.84,8.46h15.87s0,5.42-8.42,7.29-12.23-.68-14.59-2.33c-1.79-1.26-4.86-4.57-4.86-4.57l-111.39-.1c-1.45,2.42-3.82,4.51-6.39,5.81s-5.68,2.16-10.65,1.81c-4.55-.33-6.63-1.55-8.81-4.52-.58-.79-1.65-2.9-1.65-2.9l16.16-.1,4.45-8.85-4.55-8.86-16.65-.1.58-.77Z"/>
      </g>
    </g>
  </g>
</svg>